<?xml version="1.0" standalone="no"?>
<!DOCTYPE svg PUBLIC "-//W3C//DTD SVG 20010904//EN"
 "http://www.w3.org/TR/2001/REC-SVG-20010904/DTD/svg10.dtd">
<svg version="1.0" xmlns="http://www.w3.org/2000/svg"
 width="50.000000pt" height="50.000000pt" viewBox="0 0 50.000000 50.000000"
 preserveAspectRatio="xMidYMid meet">

<g transform="translate(0.000000,50.000000) scale(0.100000,-0.100000)"
fill="#000000" stroke="none">
<path d="M0 250 l0 -250 250 0 250 0 0 250 0 250 -250 0 -250 0 0 -250z m200
179 l0 -39 -60 0 -60 0 0 -35 c0 -33 2 -35 35 -35 34 0 35 -1 35 -40 0 -39 -1
-40 -35 -40 l-34 0 -3 -108 -3 -107 -27 -3 -28 -3 0 225 0 225 73 3 c103 4
107 3 107 -43z m88 -37 c-1 -39 0 -68 3 -66 4 2 27 37 53 77 42 69 48 74 81
74 19 0 35 -4 35 -9 0 -5 -21 -41 -46 -80 l-46 -71 61 -143 c34 -79 61 -145
61 -148 0 -4 -15 -6 -33 -6 -33 0 -34 2 -82 114 -47 111 -49 114 -64 93 -11
-14 -18 -54 -21 -112 -5 -89 -5 -90 -32 -93 l-28 -3 0 225 0 225 23 3 c34 6
39 -4 35 -80z"/>
</g>
</svg>
